# xmcd CD database file
#
# Track frame offsets:
#	150
#	29876
#	45469
#	65476
#	90747
#	113803
#	134888
#	156528
#
# Disc length: 2378 seconds
#
# Revision: 0
# Processed by: cddbd v1.4PL0 Copyright (c) Steve Scherf et al.
# Submitted via: CDex 1.50
#
DISCID=78094808
DTITLE=Kazumi Watanabe - The Spice Of Life
DYEAR=1900
DGENRE=Jazz
TTITLE0=Period
TTITLE1=Melancho
TTITLE2=City
TTITLE3=Hiper K
TTITLE4=UNT
TTITLE5=Na Starovia
TTITLE6=Lim-Poo
TTITLE7=J.F.K.
EXTD=
EXTT0=
EXTT1=
EXTT2=
EXTT3=
EXTT4=
EXTT5=
EXTT6=
EXTT7=
PLAYORDER=
